<?xml version="1.0" encoding="utf-8"?>
<!-- Generator: Adobe Illustrator 17.1.0, SVG Export Plug-In . SVG Version: 6.00 Build 0)  -->
<!DOCTYPE svg PUBLIC "-//W3C//DTD SVG 1.1//EN" "http://www.w3.org/Graphics/SVG/1.1/DTD/svg11.dtd">
<svg version="1.1" id="Capa_1" xmlns="http://www.w3.org/2000/svg" xmlns:xlink="http://www.w3.org/1999/xlink" x="0px" y="0px"
	 viewBox="0 10.1 512 491.8" enable-background="new 0 10.1 512 491.8" xml:space="preserve">
<path fill="#FFFFFF" d="M505.6,240.4l-231.4-223c-4.9-4.7-11.3-7.3-18.2-7.3c-6.9,0-13.3,2.6-18.2,7.3L6.4,240.4
	c-7.7,7.5-6.8,13.9-5.6,16.9c1.2,3,4.9,8.3,15.7,8.3h26.1v198.2c0,20.6,17.8,38.1,37.9,38.1h117.3V367.6h113.5v134.3h120.4
	c20.2,0,37.1-17.8,37.1-38.1V265.6h26.8c10.8,0,14.4-5.3,15.7-8.3C512.4,254.3,513.3,247.8,505.6,240.4z"/>
</svg>
