<?xml version="1.0" encoding="utf-8"?>
<!-- Generator: Adobe Illustrator 15.0.0, SVG Export Plug-In . SVG Version: 6.00 Build 0)  -->
<!DOCTYPE svg PUBLIC "-//W3C//DTD SVG 1.1//EN" "http://www.w3.org/Graphics/SVG/1.1/DTD/svg11.dtd">
<svg version="1.1" id="Capa_1" xmlns="http://www.w3.org/2000/svg" xmlns:xlink="http://www.w3.org/1999/xlink" x="0px" y="0px"
	 width="512px" height="481.377px" viewBox="0 15.31 512 481.377" enable-background="new 0 15.31 512 481.377"
	 xml:space="preserve">
<g>
	<g>
		<path fill="#FFFFFF" d="M427.601,251.191c-8.316,0-14.756,6.41-14.756,14.767v201.71H308.206v-82.367
			c0-7.727-6.438-14.48-14.224-14.48h-75.659c-8.322,0-15.025,6.754-15.025,14.48v82.367H98.924V272.655
			c0-7.786-6.434-14.253-14.756-14.253c-7.779,0-14.218,6.467-14.218,14.253v209.78c0,7.784,6.439,14.252,14.218,14.252h134.156
			c7.779,0,14.218-6.468,14.218-14.252v-82.367h46.684v82.367c0,7.784,6.438,14.252,14.757,14.252h133.618
			c7.779,0,14.218-6.468,14.218-14.252V265.959C441.818,257.604,435.38,251.191,427.601,251.191z"/>
		<path fill="#FFFFFF" d="M507.821,262.696L391.38,145.757V66.024c0-8.3-6.709-14.71-15.025-14.71
			c-7.785,0-14.224,6.411-14.224,14.71v50.485L266.079,19.89c-2.943-2.977-6.439-4.58-9.926-4.58c-4.024,0-7.515,1.66-10.463,4.58
			L4.485,261.094c-5.787,5.78-6.17,15.053,0,20.377c5.364,6.182,14.602,5.781,20.389,0l231.279-230.73l230.741,232.905
			c2.404,2.404,5.901,3.778,10.464,3.778c4.023,0,7.509-1.374,10.463-3.778C513.19,278.266,513.591,268.535,507.821,262.696z"/>
	</g>
</g>
</svg>
