<?xml version="1.0" encoding="utf-8"?>
<svg id="master-artboard" viewBox="0 0 366.2563171386719 421.70623779296875" version="1.1" xmlns="http://www.w3.org/2000/svg" x="0px" y="0px" width="366.2563171386719px" height="421.70623779296875px" enable-background="new 0 0 1400 980"><rect id="ee-background" x="0" y="0" width="366.2563171386719" height="421.70623779296875" style="fill: rgb(255, 255, 255); fill-opacity: 0; pointer-events: none;"/><defs><style id="ee-google-fonts">@import url(https://fonts.googleapis.com/css?family=Cuprum:400,400italic,700,700italic|Roboto:100,100italic,300,300italic,400,400italic,500,500italic,700,700italic,900,900italic);</style></defs>
<path d="M 0 0 H 1400 V 980 H 0 V 0 Z" fill="#FFFFFF" transform="matrix(1, 0, 0, 1, -415.7899577617645, -234.80972290039062)" style="fill: rgb(59, 59, 59); fill-opacity: 0;"/><g transform="matrix(1, 0, 0, 1, -755.7902019023895, -478.39202880859375)">
			<path fill="#0D2531" d="M1084.45,593.791c0,0,33.275-75.84-47.534-110.564c0,0,7.208,20.256,8.31,47.895&#10;&#9;&#9;&#9;&#9;c0,0-0.039,23.533-1.145,34.715c0,0-11.139-3.092-28.479-5.25c5.968-8.287,6.48-16.633,6.48-16.633&#10;&#9;&#9;&#9;&#9;c-5.278,5.344-15.845,10.209-24.54,13.582c4.83-7.039,3.776-15.209,3.776-15.209c-8.463,6.988-28.273,13.275-46.959,17.986&#10;&#9;&#9;&#9;&#9;c-6.349,0.811-12.799,1.932-19.271,3.436c0,0-27.174-10.809-66.036-25.713c-27.768-10.65-55.396-26.139-68.508-47.941&#10;&#9;&#9;&#9;&#9;c0,0-9.876,51.24,26.258,87.009c-9.891,8.453-34.127,30.994-51.318,62.223l10.137-2.25&#10;&#9;&#9;&#9;&#9;c-9.326,16.902-17.623,37.221-21.889,60.467l9.8-6.486c0,0-19.572,58.453,4.057,112.977l4.279-10.973&#10;&#9;&#9;&#9;&#9;c0,0,14.418,49.139,80.186,61.502l-6.762-11.32c0,0,134.025,3.885,155.896,50.885c0,0,44.418-22.811,69.533-75.318l4.051,15.334&#10;&#9;&#9;&#9;&#9;c21.926-47.311,17.773-87.711,12.521-109.492c-0.6-3.938-1.332-7.939-2.23-12.018l14.457,8.354c0,0,8.002-38.508-5.201-69.635&#10;&#9;&#9;&#9;&#9;l9.248,7.73C1113.565,659.082,1113.915,613.533,1084.45,593.791z"/>
			<path fill="#FDBA29" d="M1018.791,671.596c0,0,47.817,56.012,9.716,105.279c0,0-14.85-46.119-55.946-52.182&#10;&#9;&#9;&#9;&#9;c0,0,18.999-15.215,24.746-32.139C997.307,692.555,1001.347,675.939,1018.791,671.596z" style="fill: rgb(255, 255, 255);"/>
			<path fill="#5B998A" d="M858.074,596.441l17.679,5.465c0,0-20.048,46.578,0.541,72.051c25.777,31.889,63.77,31.35,120.146-10.85&#10;&#9;&#9;&#9;&#9;c0,0-14.975,52.322-64.665,70.174l-1.087-9.213c0,0-56.387,19.848-83.471-9.443l15.942-2.896c0,0-45.952-19.838-31.786-84.311&#10;&#9;&#9;&#9;&#9;l8.954,13.666C840.327,641.084,842.855,609.793,858.074,596.441z" style="fill: rgb(88, 99, 185);"/>
			<path fill="#5B998A" d="M1023.605,666.799l11.007-1.998c0,0,11.178,20.51,33.143,9.758c0,0,15.615-6.854,5.166-42.793&#10;&#9;&#9;&#9;&#9;l3.863-6.781c0,0,11.867,26.469,0.994,50.795l5.918-4.117c0,0-2.09,18.713-31.111,25.162c0,0,9.18,3.037,15.355,0.348&#10;&#9;&#9;&#9;&#9;c0,0-17.174,11.91-25.603,1.514C1042.338,698.686,1037.647,681.5,1023.605,666.799z" style="fill: rgb(88, 99, 185);"/>
			<path fill="#FDBA29" d="M955.268,650.842l-1.727,0.314c0,0-16.31,18.904-39.625,9.846c-17.508-6.807-9.298-36.828-9.298-36.828&#10;&#9;&#9;&#9;&#9;s0.142-0.652-1.094-2.83c-7.973-3.508-13.784-5.902-13.784-5.902c5.375,7.238,4.969,9.066,4.969,9.066&#10;&#9;&#9;&#9;&#9;s-11.156,40.797,12.634,50.041c31.683,12.314,53.843-13.379,53.843-13.379l5.898-1.072&#10;&#9;&#9;&#9;&#9;C967.084,660.098,962.067,655.99,955.268,650.842z" style="fill: rgb(233, 8, 53);"/>
			<path fill="#FDBA29" d="M1065.708,633.074l3.832-9.125c0,0-4.402,4.143-10.289,10.598c9.451,15.818-2.562,25.285-2.562,25.285&#10;&#9;&#9;&#9;&#9;c-6.502,4.748-12.744,0.869-15.925-1.908c-0.933,1.42-1.838,2.85-2.699,4.287c0,0,11.886,14.748,24.476,5.549&#10;&#9;&#9;&#9;&#9;C1062.54,667.76,1079.058,654.764,1065.708,633.074z" style="fill: rgb(233, 8, 53);"/>
			<path fill="#5B998A" d="M807.891,511.109c0,0,9.379,51.623,60.343,70.988c27.16,10.32,70.356,18.195,104.659,50.531&#10;&#9;&#9;&#9;&#9;c0,0-10.854-35.936-88.802-69.006C862.792,554.586,835.042,550.486,807.891,511.109z" style="fill: rgb(88, 99, 185);"/>
			<path fill="#5B998A" d="M1051.94,497.945c18.303,29.701,35.109,71.652-11.482,125.994c0,0,49.066-25.32,39.867-78.217&#10;&#9;&#9;&#9;&#9;C1076.126,521.588,1061.956,503.084,1051.94,497.945z" style="fill: rgb(88, 99, 185);"/>
			<path fill="#5B998A" d="M985.306,645.92c0,0,16.006,19.688,29.738-2.656C1016.341,650.232,1002.555,676.115,985.306,645.92z" style="fill: rgb(88, 99, 185);"/>
			<path fill="#5B998A" d="M1023.977,642.557c0,0,13.657,14.047,22.327-4.057C1045.829,646.682,1037.227,663.541,1023.977,642.557z" style="fill: rgb(88, 99, 185);"/>
			<path fill="#5B998A" d="M1085.173,608.561c0,0,15.336,12.113,18.701,30.631l-10.199-2.18c0,0,9.812,35.666,3.254,59.992&#10;&#9;&#9;&#9;&#9;c0,0,1.496-33.848-12.553-69.084l11.336,3.037C1095.712,630.957,1095.005,621.674,1085.173,608.561z" style="fill: rgb(88, 99, 185);"/>
			<path fill="#5B998A" d="M1081.669,722.322c0,0,14.695,80.654-49.923,135.133c29.86-40.713,37.388-60.904,39.292-120.264&#10;&#9;&#9;&#9;&#9;L1081.669,722.322z" style="fill: rgb(88, 99, 185);"/>
			<path fill="#0D2531" d="M1015.439,698.477c0,0,0.795,0.471,1.939,1.543c2.941,2.75,8.198,9.457,8.271,22.283&#10;&#9;&#9;&#9;&#9;C1025.65,722.303,1005.709,698.871,1015.439,698.477z"/>
			<path fill="#FDBA29" d="M971.91,697.365"/>
			<path fill="#5B998A" d="M833.947,593.031c0,0-37.33,35.701-49.103,83.955l10.213-5.033c0,0-17.682,43.5-13.938,101.344&#10;&#9;&#9;&#9;&#9;l11.467-15.123c0,0,13.156,56.232,48.49,69.42l-3.897-17.133c0,0,30.415,19.568,72.03,19.85c0,0-62.729-17.977-78.806-41.719&#10;&#9;&#9;&#9;&#9;l-0.711,10.875c0,0-27.998-31.084-23.376-72.018l-9.379,8.271c0,0-0.032-54.078,17.998-83.85l-15.424,9.635&#10;&#9;&#9;&#9;&#9;C799.513,661.506,811.79,622.152,833.947,593.031z" style="fill: rgb(88, 99, 185);"/>
		<path d="M 866.7910766601562 703.1343994140625 L 846.4926147460938 581.3433227539062" style="fill: rgb(88, 99, 185); fill-opacity: 1; stroke: rgb(0, 0, 0); stroke-opacity: 1; stroke-width: 0; paint-order: fill;"/></g><path fill="#FDBA29" d="M449.504,653.166" transform="matrix(1, 0, 0, 1, -415.7899577617645, -234.80972290039062)"/>
</svg>